<svg width="60" height="60" viewBox="0 0 60 60" fill="none" xmlns="http://www.w3.org/2000/svg">
<circle cx="30" cy="30" r="30" fill="#BFDBFE"/>
<path d="M18 33L18 13.5M18 33C19.6569 33 21 34.3431 21 36C21 37.6569 19.6569 39 18 39M18 33C16.3431 33 15 34.3431 15 36C15 37.6569 16.3431 39 18 39M18 46.5L18 39M42 33V13.5M42 33C43.6569 33 45 34.3431 45 36C45 37.6569 43.6569 39 42 39M42 33C40.3431 33 39 34.3431 39 36C39 37.6569 40.3431 39 42 39M42 46.5L42 39M30 21V13.5M30 21C31.6569 21 33 22.3431 33 24C33 25.6569 31.6569 27 30 27M30 21C28.3431 21 27 22.3431 27 24C27 25.6569 28.3431 27 30 27M30 46.5V27" stroke="#3B82F6" stroke-width="3" stroke-linecap="round" stroke-linejoin="round"/>
</svg>
