<svg width="60" height="60" viewBox="0 0 60 60" fill="none" xmlns="http://www.w3.org/2000/svg">
<circle cx="30" cy="30" r="30" fill="#BFDBFE"/>
<path d="M42 27V25.5C41.1716 25.5 40.5 26.1716 40.5 27H42ZM42.015 27H43.515C43.515 26.1716 42.8434 25.5 42.015 25.5V27ZM42.015 27.015V28.515C42.8434 28.515 43.515 27.8434 43.515 27.015H42.015ZM42 27.015H40.5C40.5 27.8434 41.1716 28.515 42 28.515V27.015ZM18 27V25.5C17.1716 25.5 16.5 26.1716 16.5 27H18ZM18.015 27H19.515C19.515 26.1716 18.8434 25.5 18.015 25.5V27ZM18.015 27.015V28.515C18.8434 28.515 19.515 27.8434 19.515 27.015H18.015ZM18 27.015H16.5C16.5 27.8434 17.1716 28.515 18 28.515V27.015ZM10.5 42C9.67157 42 9 42.6716 9 43.5C9 44.3284 9.67157 45 10.5 45V42ZM42.0935 47.7024L42.4875 46.2551L42.4875 46.2551L42.0935 47.7024ZM46.5 43.5C46.5 42.6716 45.8284 42 45 42C44.1716 42 43.5 42.6716 43.5 43.5H46.5ZM15 15C15 14.1716 14.3284 13.5 13.5 13.5C12.6716 13.5 12 14.1716 12 15H15ZM49.5 19.5C50.3284 19.5 51 18.8284 51 18C51 17.1716 50.3284 16.5 49.5 16.5V19.5ZM49.5 37.5C50.3284 37.5 51 36.8284 51 36C51 35.1716 50.3284 34.5 49.5 34.5V37.5ZM48 17.25V36.75H51V17.25H48ZM12.75 37.5C12.3358 37.5 12 37.1642 12 36.75H9C9 38.8211 10.6789 40.5 12.75 40.5V37.5ZM48 36.75C48 37.1642 47.6642 37.5 47.25 37.5V40.5C49.3211 40.5 51 38.8211 51 36.75H48ZM47.25 16.5C47.6642 16.5 48 16.8358 48 17.25H51C51 15.1789 49.3211 13.5 47.25 13.5V16.5ZM12.75 13.5C10.6789 13.5 9 15.1789 9 17.25H12C12 16.8358 12.3358 16.5 12.75 16.5V13.5ZM34.5 27C34.5 29.4853 32.4853 31.5 30 31.5V34.5C34.1421 34.5 37.5 31.1421 37.5 27H34.5ZM30 31.5C27.5147 31.5 25.5 29.4853 25.5 27H22.5C22.5 31.1421 25.8579 34.5 30 34.5V31.5ZM25.5 27C25.5 24.5147 27.5147 22.5 30 22.5V19.5C25.8579 19.5 22.5 22.8579 22.5 27H25.5ZM30 22.5C32.4853 22.5 34.5 24.5147 34.5 27H37.5C37.5 22.8579 34.1421 19.5 30 19.5V22.5ZM42 28.5H42.015V25.5H42V28.5ZM40.515 27V27.015H43.515V27H40.515ZM42.015 25.515H42V28.515H42.015V25.515ZM43.5 27.015V27H40.5V27.015H43.5ZM18 28.5H18.015V25.5H18V28.5ZM16.515 27V27.015H19.515V27H16.515ZM18.015 25.515H18V28.515H18.015V25.515ZM19.5 27.015V27H16.5V27.015H19.5ZM10.5 45C21.3001 45 31.7605 46.4444 41.6996 49.1498L42.4875 46.2551C32.2939 43.4805 21.5687 42 10.5 42V45ZM46.5 45.5103V43.5H43.5V45.5103H46.5ZM41.6996 49.1498C44.0807 49.7979 46.5 48.0336 46.5 45.5103H43.5C43.5 46.0007 43.0143 46.3985 42.4875 46.2551L41.6996 49.1498ZM48 37.5V34.5C46.3431 34.5 45 35.8431 45 37.5H48ZM12 37.5H15C15 35.8431 13.6569 34.5 12 34.5V37.5ZM12 16.5V16.5V19.5C13.6569 19.5 15 18.1569 15 16.5H12ZM48 16.5V16.5H45C45 18.1569 46.3431 19.5 48 19.5V16.5ZM15 16.5V15H12V16.5H15ZM12 16.5H10.5V19.5H12V16.5ZM12 18V17.25H9V18H12ZM48 16.5V15H45V16.5H48ZM12.75 16.5H46.5V13.5H12.75V16.5ZM46.5 16.5H47.25V13.5H46.5V16.5ZM48 19.5H49.5V16.5H48V19.5ZM48 37.5H49.5V34.5H48V37.5ZM45 37.5V39H48V37.5H45ZM47.25 37.5H46.5V40.5H47.25V37.5ZM46.5 37.5H13.5V40.5H46.5V37.5ZM13.5 37.5H12.75V40.5H13.5V37.5ZM12 37.5V39H15V37.5H12ZM12 36.75V36H9V36.75H12ZM12 36V18H9V36H12ZM12 34.5H10.5V37.5H12V34.5Z" fill="#3B82F6"/>
</svg>
