<svg width="60" height="60" viewBox="0 0 60 60" fill="none" xmlns="http://www.w3.org/2000/svg">
<circle cx="30" cy="30" r="30" fill="#BFDBFE"/>
<path d="M16.7651 28.5C18.3778 28.5 19.833 27.6083 20.8282 26.3393C22.3745 24.3677 24.3234 22.7268 26.5511 21.5404C27.9953 20.7713 29.2486 19.6286 29.8563 18.1093C30.2815 17.0462 30.5 15.9117 30.5 14.7668V13.5C30.5 12.6716 31.1716 12 32 12C34.4853 12 36.5 14.0147 36.5 16.5C36.5 18.8033 35.9809 20.9853 35.0533 22.9354C34.5221 24.0521 35.2672 25.5 36.5038 25.5M36.5038 25.5H42.7555C44.8087 25.5 46.6466 26.888 46.864 28.9297C46.9539 29.7742 47 30.6317 47 31.5C47 37.1952 45.0162 42.4272 41.702 46.5424C40.9268 47.505 39.7284 48 38.4925 48H30.4605C29.4932 48 28.5321 47.8441 27.6144 47.5382L21.3856 45.4618C20.4679 45.1559 19.5068 45 18.5395 45H15.3084M36.5038 25.5H32M15.3084 45C15.474 45.4092 15.6543 45.8108 15.8485 46.2044C16.2427 47.0035 15.6924 48 14.8013 48H12.9858C11.2084 48 9.55983 46.964 9.04111 45.2639C8.36417 43.0453 8 40.6902 8 38.25C8 35.1451 8.58961 32.1779 9.66298 29.4542C10.2731 27.9061 11.8347 27 13.4987 27H15.6042C16.5481 27 17.0946 28.1118 16.6046 28.9185C14.9518 31.6396 14 34.8336 14 38.25C14 40.637 14.4646 42.9155 15.3084 45Z" stroke="#3B82F6" stroke-width="3" stroke-linecap="round" stroke-linejoin="round"/>
</svg>
