<svg width="60" height="60" viewBox="0 0 60 60" fill="none" xmlns="http://www.w3.org/2000/svg">
<circle cx="30" cy="30" r="30" fill="#BFDBFE"/>
<path d="M24 19.5V36M36 24V40.5M37.0062 47.4969L46.7562 42.6219C47.5185 42.2407 48 41.4616 48 40.6094V15.6406C48 13.968 46.2398 12.8801 44.7438 13.6281L37.0062 17.4969C36.3728 17.8136 35.6272 17.8136 34.9938 17.4969L25.0062 12.5031C24.3728 12.1864 23.6272 12.1864 22.9938 12.5031L13.2438 17.3781C12.4815 17.7592 12 18.5383 12 19.3906V44.3594C12 46.032 13.7602 47.1199 15.2562 46.3719L22.9938 42.5031C23.6272 42.1864 24.3728 42.1864 25.0062 42.5031L34.9938 47.4969C35.6272 47.8136 36.3728 47.8136 37.0062 47.4969Z" stroke="#3B82F6" stroke-width="3" stroke-linecap="round" stroke-linejoin="round"/>
</svg>
