<svg width="48" height="48" viewBox="0 0 48 48" fill="none" xmlns="http://www.w3.org/2000/svg">
<path d="M24 48C10.7452 48 0 37.2548 0 24C0 10.7452 10.7452 0 24 0C37.2548 0 48 10.7452 48 24C48 37.2548 37.2548 48 24 48ZM24 45.6C35.9294 45.6 45.6 35.9294 45.6 24C45.6 12.0706 35.9294 2.4 24 2.4C12.0706 2.4 2.4 12.0706 2.4 24C2.4 35.9294 12.0706 45.6 24 45.6ZM16.8 12C19.451 12 21.6 14.149 21.6 16.8V31.2C21.6 33.851 19.451 36 16.8 36C14.149 36 12 33.851 12 31.2V16.8C12 14.149 14.149 12 16.8 12ZM16.8 14.4C15.4745 14.4 14.4 15.4745 14.4 16.8V31.2C14.4 32.5255 15.4745 33.6 16.8 33.6C18.1255 33.6 19.2 32.5255 19.2 31.2V16.8C19.2 15.4745 18.1255 14.4 16.8 14.4ZM31.2 12C33.851 12 36 14.149 36 16.8V31.2C36 33.851 33.851 36 31.2 36C28.549 36 26.4 33.851 26.4 31.2V16.8C26.4 14.149 28.549 12 31.2 12ZM31.2 14.4C29.8745 14.4 28.8 15.4745 28.8 16.8V31.2C28.8 32.5255 29.8745 33.6 31.2 33.6C32.5255 33.6 33.6 32.5255 33.6 31.2V16.8C33.6 15.4745 32.5255 14.4 31.2 14.4Z" fill="white"/>
</svg>
